<?xml version="1.0" encoding="UTF-8" standalone="no"?>
<!-- Created with Inkscape (http://www.inkscape.org/) -->

<svg
   xmlns:dc="http://purl.org/dc/elements/1.1/"
   xmlns:cc="http://creativecommons.org/ns#"
   xmlns:rdf="http://www.w3.org/1999/02/22-rdf-syntax-ns#"
   xmlns:svg="http://www.w3.org/2000/svg"
   xmlns="http://www.w3.org/2000/svg"
   xmlns:sodipodi="http://sodipodi.sourceforge.net/DTD/sodipodi-0.dtd"
   xmlns:inkscape="http://www.inkscape.org/namespaces/inkscape"
   width="744.09448819"
   height="1052.3622047"
   id="svg2"
   version="1.1"
   inkscape:version="0.48.3.1 r9886"
   sodipodi:docname="flowchart.svg">
  <defs
     id="defs4" />
  <sodipodi:namedview
     id="base"
     pagecolor="#ffffff"
     bordercolor="#666666"
     borderopacity="1.0"
     inkscape:pageopacity="0.0"
     inkscape:pageshadow="2"
     inkscape:zoom="0.35"
     inkscape:cx="375"
     inkscape:cy="7262.8571"
     inkscape:document-units="px"
     inkscape:current-layer="layer1"
     showgrid="false"
     inkscape:window-width="1920"
     inkscape:window-height="1150"
     inkscape:window-x="0"
     inkscape:window-y="0"
     inkscape:window-maximized="1" />
  <metadata
     id="metadata7">
    <rdf:RDF>
      <cc:Work
         rdf:about="">
        <dc:format>image/svg+xml</dc:format>
        <dc:type
           rdf:resource="http://purl.org/dc/dcmitype/StillImage" />
      </cc:Work>
    </rdf:RDF>
  </metadata>
  <g
     inkscape:label="Layer 1"
     inkscape:groupmode="layer"
     id="layer1">
    <rect
       style="fill:#e3dbdb;fill-opacity:1;stroke:#ffffff;stroke-width:2;stroke-linecap:square;stroke-miterlimit:4;stroke-opacity:0.99559476;stroke-dasharray:48, 2;stroke-dashoffset:0.8"
       id="rect3066"
       width="757.14288"
       height="274.28571"
       x="128.57143"
       y="-7007.6372" />
    <text
       xml:space="preserve"
       style="font-size:40px;font-style:normal;font-weight:normal;line-height:125%;letter-spacing:0px;word-spacing:0px;fill:#000000;fill-opacity:1;stroke:none;font-family:Sans"
       x="185.71429"
       y="-599.06641"
       id="text3836"
       sodipodi:linespacing="125%"><tspan
         sodipodi:role="line"
         id="tspan3838"
         x="185.71429"
         y="-599.06641" /></text>
    <flowRoot
       xml:space="preserve"
       id="flowRoot3840"
       style="fill:black;stroke:none;stroke-opacity:1;stroke-width:1px;stroke-linejoin:miter;stroke-linecap:butt;fill-opacity:1;font-family:Sans;font-style:normal;font-weight:normal;font-size:40px;line-height:125%;letter-spacing:0px;word-spacing:0px"><flowRegion
         id="flowRegion3842"><rect
           id="rect3844"
           width="337.14285"
           height="71.428574"
           x="105.71429"
           y="-661.92352" /></flowRegion><flowPara
         id="flowPara3846" /></flowRoot>    <flowRoot
       xml:space="preserve"
       id="flowRoot3848"
       style="fill:black;stroke:none;stroke-opacity:1;stroke-width:1px;stroke-linejoin:miter;stroke-linecap:butt;fill-opacity:1;font-family:Sans;font-style:normal;font-weight:normal;font-size:40px;line-height:125%;letter-spacing:0px;word-spacing:0px"><flowRegion
         id="flowRegion3850"><rect
           id="rect3852"
           width="405.71429"
           height="85.714287"
           x="34.285713"
           y="-696.20923" /></flowRegion><flowPara
         id="flowPara3854" /></flowRoot>    <flowRoot
       xml:space="preserve"
       id="flowRoot3856"
       style="fill:black;stroke:none;stroke-opacity:1;stroke-width:1px;stroke-linejoin:miter;stroke-linecap:butt;fill-opacity:1;font-family:Sans;font-style:normal;font-weight:normal;font-size:40px;line-height:125%;letter-spacing:0px;word-spacing:0px"><flowRegion
         id="flowRegion3858"><rect
           id="rect3860"
           width="371.42856"
           height="71.428574"
           x="71.428574"
           y="-676.20923" /></flowRegion><flowPara
         id="flowPara3862" /></flowRoot>    <text
       xml:space="preserve"
       style="font-size:64px;font-style:normal;font-weight:normal;line-height:125%;letter-spacing:0px;word-spacing:0px;fill:#000000;fill-opacity:1;stroke:none;font-family:Sans"
       x="382.85718"
       y="-6841.9233"
       id="text3864"
       sodipodi:linespacing="125%"><tspan
         sodipodi:role="line"
         id="tspan3866"
         x="382.85718"
         y="-6841.9233">start game</tspan></text>
    <rect
       style="fill:#e3dbdb;fill-opacity:1;stroke:#ffffff;stroke-width:2;stroke-linecap:square;stroke-miterlimit:4;stroke-opacity:0.99559476;stroke-dasharray:48, 2;stroke-dashoffset:0.8"
       id="rect3007"
       width="654.28571"
       height="234.28572"
       x="200"
       y="-6599.0664" />
    <text
       xml:space="preserve"
       style="font-size:64px;font-style:normal;font-weight:normal;line-height:125%;letter-spacing:0px;word-spacing:0px;fill:#000000;fill-opacity:1;stroke:none;font-family:Sans"
       x="451.42856"
       y="-6459.0664"
       id="text3009"
       sodipodi:linespacing="125%"><tspan
         sodipodi:role="line"
         id="tspan3011"
         x="451.42856"
         y="-6459.0664">intro()</tspan></text>
    <rect
       style="fill:#ff7f2a;fill-opacity:1;stroke:#ffffff;stroke-width:2;stroke-linecap:square;stroke-miterlimit:4;stroke-opacity:0.99559476;stroke-dasharray:48, 2;stroke-dashoffset:0.8"
       id="rect3010"
       width="642.85724"
       height="257.14584"
       x="219.99998"
       y="-6293.3521" />
    <text
       xml:space="preserve"
       style="font-size:64px;font-style:normal;font-weight:normal;line-height:125%;letter-spacing:0px;word-spacing:0px;fill:#000000;fill-opacity:1;stroke:none;font-family:Sans"
       x="331.42856"
       y="-6167.6377"
       id="text3012"
       sodipodi:linespacing="125%"><tspan
         sodipodi:role="line"
         id="tspan3014"
         x="331.42856"
         y="-6167.6377" /></text>
    <text
       xml:space="preserve"
       style="font-size:64px;font-style:normal;font-weight:normal;line-height:125%;letter-spacing:0px;word-spacing:0px;fill:#000000;fill-opacity:1;stroke:none;font-family:Sans"
       x="282.85715"
       y="-6136.209"
       id="text3016"
       sodipodi:linespacing="125%"><tspan
         sodipodi:role="line"
         id="tspan3018"
         x="282.85715"
         y="-6136.209">rocket_freighter()</tspan></text>
    <rect
       style="fill:#ff7f2a;fill-opacity:1;stroke:#ffffff;stroke-width:2;stroke-linecap:square;stroke-miterlimit:4;stroke-opacity:0.99559476;stroke-dasharray:48, 2;stroke-dashoffset:0.8"
       id="rect3020"
       width="534.28571"
       height="248.57143"
       x="-174.28571"
       y="-5967.6382" />
    <rect
       style="fill:#ff7f2a;fill-opacity:1;stroke:#ffffff;stroke-width:2;stroke-linecap:square;stroke-miterlimit:4;stroke-opacity:0.99559476;stroke-dasharray:48, 2;stroke-dashoffset:0.8"
       id="rect3026"
       width="440"
       height="248.57143"
       x="825.71429"
       y="-5959.0664" />
    <text
       xml:space="preserve"
       style="font-size:64px;font-style:normal;font-weight:normal;line-height:125%;letter-spacing:0px;word-spacing:0px;fill:#000000;fill-opacity:1;stroke:none;font-family:Sans"
       x="-62.857143"
       y="-5813.3521"
       id="text3028"
       sodipodi:linespacing="125%"><tspan
         sodipodi:role="line"
         id="tspan3030"
         x="-62.857143"
         y="-5813.3521">rocket()</tspan></text>
    <text
       xml:space="preserve"
       style="font-size:64px;font-style:normal;font-weight:normal;line-height:125%;letter-spacing:0px;word-spacing:0px;fill:#000000;fill-opacity:1;stroke:none;font-family:Sans"
       x="925.71429"
       y="-5799.0664"
       id="text3032"
       sodipodi:linespacing="125%"><tspan
         sodipodi:role="line"
         id="tspan3034"
         x="925.71429"
         y="-5799.0664" /></text>
    <text
       xml:space="preserve"
       style="font-size:64px;font-style:normal;font-weight:normal;line-height:125%;letter-spacing:0px;word-spacing:0px;fill:#000000;fill-opacity:1;stroke:none;font-family:Sans"
       x="877.14288"
       y="-5833.3521"
       id="text3036"
       sodipodi:linespacing="125%"><tspan
         sodipodi:role="line"
         id="tspan3038"
         x="877.14288"
         y="-5833.3521">freighter()</tspan></text>
    <path
       style="fill:none;stroke:#000000;stroke-width:1px;stroke-linecap:butt;stroke-linejoin:miter;stroke-opacity:1"
       d="m 508.57143,-6744.7807 c -3.12399,7.1689 -2.85714,12.8359 -2.85714,20 0,0.9524 0.42591,2.0053 0,2.8572 -0.60234,1.2046 -2.25481,1.6524 -2.85715,2.8571 -0.43476,0.8695 0,7.2847 0,8.5714 0,7.6191 0,15.2381 0,22.8572 0,12.3809 0,24.7619 0,37.1428 0,2.0252 -0.36936,16.4042 0,17.1429 0.60234,1.2047 2.25481,1.6525 2.85715,2.8571 0.93545,1.8709 -0.84518,11.7502 0,14.2858 0.67343,2.0203 2.1837,3.6939 2.85714,5.7142 0.32623,0.9787 0.32623,10.4499 0,11.4286 -3.28306,9.8492 -2.85714,2.1165 -2.85714,8.5714"
       id="path3042"
       inkscape:connector-curvature="0" />
    <path
       style="fill:none;stroke:#000000;stroke-width:1px;stroke-linecap:butt;stroke-linejoin:miter;stroke-opacity:1"
       d="m 537.14286,-6376.2092 c -4.93583,-0.4951 -1.92814,18.1419 -2.85715,20 -0.60233,1.2046 -2.2548,1.6524 -2.85714,2.8571 -0.51662,1.0332 0,12.2985 0,14.2857 0,10.4762 0,20.9524 0,31.4286 0,4.7619 0,9.5238 0,14.2857 0,0.9524 0,1.9048 0,2.8571 0,0.9524 -0.42592,2.0053 0,2.8572 0.60234,1.2047 1.90476,1.9047 2.85714,2.8571"
       id="path3044"
       inkscape:connector-curvature="0" />
    <path
       style="fill:none;stroke:#000000;stroke-width:1px;stroke-linecap:butt;stroke-linejoin:miter;stroke-opacity:1"
       d="m 277.14286,-6039.0664 c -0.95238,3.8095 -1.39878,7.7827 -2.85715,11.4286 -0.50021,1.2505 -1.90476,1.9047 -2.85714,2.8571 -0.95238,0.9524 -1.90476,1.9048 -2.85714,2.8572 -3.80953,3.8095 -7.61905,7.619 -11.42857,11.4285 -1.90476,1.9048 -3.80953,3.8096 -5.71429,5.7143 -0.95238,0.9524 -1.65246,2.2548 -2.85714,2.8572 -0.85184,0.4259 -1.90476,0 -2.85714,0 -0.95239,0 -2.85715,0.9523 -2.85715,0 0,-0.9524 3.53058,-0.6735 2.85715,0 -7.21687,7.2168 -3.29368,1.0979 -8.57143,2.8571 -5.96208,1.9874 -8.32364,6.5841 -14.28572,8.5714 -0.90351,0.3012 -1.90476,0 -2.85714,0 -2.85714,0.9524 -5.87769,1.5103 -8.57143,2.8572 -2.40935,1.2047 -3.47296,4.2201 -5.71428,5.7143 -10.37845,6.9189 -2.02048,-0.8367 -8.57143,5.7143 -0.95238,0.9523 -1.90476,1.9047 -2.85715,2.8571 -0.95238,0.9524 -1.57939,2.4312 -2.85714,2.8571 -2.23369,0.7446 -15.57056,-0.7861 -17.14286,0 -1.20467,0.6024 -1.65246,2.2548 -2.85714,2.8572 -2.28571,1.1428 -6.28571,-1.1429 -8.57143,0 -7.06115,3.5306 0.98623,2.8571 -5.71428,2.8571"
       id="path3046"
       inkscape:connector-curvature="0" />
    <path
       style="fill:none;stroke:#000000;stroke-width:1px;stroke-linecap:butt;stroke-linejoin:miter;stroke-opacity:1"
       d="m 840,-6039.0664 c 3.80952,2.8572 14.28571,4.7619 11.42857,8.5714 -2.85714,3.8096 -13.55816,-12.8306 -11.42857,-8.5714 3.01169,6.0234 10.37145,8.8058 14.28571,14.2857 1.10712,1.55 -0.60233,3.9073 0,5.7143 0.85184,2.5555 4.50961,3.3049 5.71429,5.7143 0.42592,0.8518 -0.42592,2.0053 0,2.8571 9.47595,9.476 -1.34687,-2.6937 2.85714,5.7143 0.60234,1.2047 2.11004,1.7365 2.85715,2.8572 1.18128,1.7719 1.67586,3.9423 2.85714,5.7143 0.74711,1.1206 1.90476,1.9047 2.85714,2.8571 2.85714,2.8571 5.71429,5.7143 8.57143,8.5714 0.95238,0.9524 2.11003,1.7365 2.85714,2.8572 2.63655,3.9548 3.07774,7.4737 5.71429,11.4285 2.1978,3.2967 6.37362,5.2748 8.57143,8.5715 1.18128,1.7719 1.67586,3.9423 2.85714,5.7143 0.74711,1.1206 1.90476,1.9047 2.85714,2.8571 0.95238,0.9524 1.65247,2.2548 2.85715,2.8571 0.85183,0.426 1.90476,0 2.85714,0 2.02515,0 16.40414,0.3694 17.14286,0 1.20467,-0.6023 1.65246,-2.2548 2.85714,-2.8571 0.85183,-0.4259 2.00531,0.4259 2.85714,0 1.20468,-0.6023 1.65247,-2.2548 2.85714,-2.8571 0.85184,-0.426 1.90477,0 2.85715,0 0.95238,0 1.90476,0 2.85714,0 4.7619,0 9.52381,0 14.28571,0 5.71429,0 11.42858,0 17.14286,0 0.95238,0 2.85714,-0.9524 2.85714,0 0,0.9523 -1.90476,0 -2.85714,0"
       id="path3048"
       inkscape:connector-curvature="0" />
  </g>
</svg>
